<svg xmlns="http://www.w3.org/2000/svg" viewBox="0 0 780 300" font-family="IBM Plex Mono, monospace">
  <defs>
    <marker id="ai" markerWidth="9" markerHeight="9" refX="7" refY="4.5" orient="auto">
      <path d="M1,1 L7,4.5 L1,8" fill="none" stroke="#1a1a1a" stroke-width="1.5" stroke-linecap="round" stroke-linejoin="round"/>
    </marker>
  </defs>
  <rect width="780" height="300" fill="#fafaf8"/>

  <!-- Host -->
  <rect x="40" y="40" width="290" height="224" rx="2" fill="none" stroke="#1a1a1a" stroke-width="1.5"/>
  <text x="60" y="66" font-size="11" letter-spacing="2" font-weight="500" fill="#1a1a1a">HOST</text>
  <text x="120" y="66" font-size="11" fill="#6b6b6b">your AI application</text>
  <line x1="60" y1="78" x2="310" y2="78" stroke="#e8e8e8" stroke-width="1"/>

  <!-- Model inside host -->
  <rect x="64" y="92" width="242" height="46" rx="2" fill="none" stroke="#6b6b6b" stroke-width="1.5"/>
  <text x="185" y="111" text-anchor="middle" font-size="11" letter-spacing="1" font-weight="500" fill="#1a1a1a">THE MODEL</text>
  <text x="185" y="129" text-anchor="middle" font-size="10.5" fill="#6b6b6b">sees tools from both servers</text>

  <!-- Client A -->
  <rect x="64" y="152" width="242" height="44" rx="2" fill="none" stroke="#1a1a1a" stroke-width="1.5"/>
  <text x="185" y="170" text-anchor="middle" font-size="11" letter-spacing="1" font-weight="500" fill="#1a1a1a">MCP CLIENT A</text>
  <text x="185" y="188" text-anchor="middle" font-size="10.5" fill="#6b6b6b">one session · server 1</text>

  <!-- Client B -->
  <rect x="64" y="208" width="242" height="44" rx="2" fill="none" stroke="#1a1a1a" stroke-width="1.5"/>
  <text x="185" y="226" text-anchor="middle" font-size="11" letter-spacing="1" font-weight="500" fill="#1a1a1a">MCP CLIENT B</text>
  <text x="185" y="244" text-anchor="middle" font-size="10.5" fill="#6b6b6b">one session · server 2</text>

  <!-- Server 1 -->
  <rect x="540" y="52" width="210" height="84" rx="2" fill="none" stroke="#1a1a1a" stroke-width="1.5"/>
  <text x="645" y="74" text-anchor="middle" font-size="11" letter-spacing="1" font-weight="500" fill="#1a1a1a">MCP SERVER 1</text>
  <text x="645" y="92" text-anchor="middle" font-size="10.5" fill="#6b6b6b">document tools</text>
  <rect x="558" y="102" width="48" height="20" rx="2" fill="#e8e8e8"/>
  <text x="582" y="116" text-anchor="middle" font-size="10" fill="#1a1a1a">list</text>
  <rect x="614" y="102" width="48" height="20" rx="2" fill="#e8e8e8"/>
  <text x="638" y="116" text-anchor="middle" font-size="10" fill="#1a1a1a">read</text>
  <rect x="670" y="102" width="62" height="20" rx="2" fill="#e8e8e8"/>
  <text x="701" y="116" text-anchor="middle" font-size="10" fill="#1a1a1a">search</text>

  <!-- Server 2 -->
  <rect x="540" y="168" width="210" height="84" rx="2" fill="none" stroke="#1a1a1a" stroke-width="1.5"/>
  <text x="645" y="190" text-anchor="middle" font-size="11" letter-spacing="1" font-weight="500" fill="#1a1a1a">MCP SERVER 2</text>
  <text x="645" y="208" text-anchor="middle" font-size="10.5" fill="#6b6b6b">database tools</text>
  <rect x="576" y="218" width="58" height="20" rx="2" fill="#e8e8e8"/>
  <text x="605" y="232" text-anchor="middle" font-size="10" fill="#1a1a1a">query</text>
  <rect x="642" y="218" width="66" height="20" rx="2" fill="#e8e8e8"/>
  <text x="675" y="232" text-anchor="middle" font-size="10" fill="#1a1a1a">insert</text>

  <!-- Sessions -->
  <line x1="306" y1="174" x2="534" y2="98" stroke="#1a1a1a" stroke-width="1.5" marker-end="url(#ai)"/>
  <text x="422" y="104" text-anchor="middle" font-size="10.5" fill="#1a1a1a">stdio · local subprocess</text>

  <line x1="306" y1="230" x2="534" y2="216" stroke="#1a1a1a" stroke-width="1.5" marker-end="url(#ai)"/>
  <text x="420" y="212" text-anchor="middle" font-size="10.5" fill="#1a1a1a">Streamable HTTP · remote</text>

  <text x="420" y="164" text-anchor="middle" font-size="10.5" font-weight="500" fill="#9b4a3f">one client &#8596; one server</text>

  <!-- Footnote -->
  <text x="390" y="290" text-anchor="middle" font-size="11" fill="#6b6b6b">JSON-RPC 2.0 over both transports · the host runs one client per server it connects to</text>
</svg>
