<svg xmlns="http://www.w3.org/2000/svg" width="720" height="400" viewBox="0 0 720 400" font-family="'IBM Plex Sans', Arial, Helvetica, sans-serif">
  <defs>
    <style>@import url('https://fonts.googleapis.com/css2?family=IBM+Plex+Sans:wght@400;600;700&amp;display=swap');</style>
    <marker id="arr-up" markerWidth="7" markerHeight="10" refX="3.5" refY="1" orient="auto">
      <polygon points="0 10, 3.5 0, 7 10" fill="#6B7280"/>
    </marker>
    <marker id="arr-down" markerWidth="7" markerHeight="10" refX="3.5" refY="9" orient="auto">
      <polygon points="0 0, 3.5 10, 7 0" fill="#6B7280"/>
    </marker>
  </defs>

  <!-- Background -->
  <rect width="720" height="400" fill="#ffffff"/>

  <!-- Title -->
  <text x="360" y="30" text-anchor="middle" font-size="18" font-weight="bold" fill="#111827">Framework Abstraction Layers</text>
  <line x1="40" y1="42" x2="680" y2="42" stroke="#D1D5DB" stroke-width="1"/>

  <!-- Left axis labels -->
  <text x="28" y="116" text-anchor="middle" font-size="10" font-weight="bold" fill="#8B5CF6" transform="rotate(-90,28,116)">More abstraction</text>
  <line x1="18" y1="80" x2="18" y2="160" stroke="#8B5CF6" stroke-width="2" marker-end="url(#arr-up)"/>

  <text x="28" y="300" text-anchor="middle" font-size="10" font-weight="bold" fill="#374151" transform="rotate(-90,28,300)">More control</text>
  <line x1="18" y1="340" x2="18" y2="250" stroke="#374151" stroke-width="2" marker-end="url(#arr-down)"/>

  <!-- LAYER 3 (top): LangChain -->
  <rect x="50" y="68" width="638" height="84" rx="10" fill="#F5F3FF" stroke="#8B5CF6" stroke-width="2"/>
  <text x="180" y="96" text-anchor="middle" font-size="16" font-weight="bold" fill="#5B21B6">LangChain</text>
  <text x="180" y="116" text-anchor="middle" font-size="11" fill="#374151">Chains, agents, memory, retrievers</text>
  <text x="180" y="133" text-anchor="middle" font-size="11" fill="#374151">Large ecosystem, many integrations</text>

  <!-- Tags for LangChain -->
  <rect x="420" y="80" width="92" height="22" rx="4" fill="#DCFCE7"/>
  <text x="466" y="96" text-anchor="middle" font-size="10" font-weight="bold" fill="#15803D">Ecosystem</text>
  <rect x="520" y="80" width="100" height="22" rx="4" fill="#DCFCE7"/>
  <text x="570" y="96" text-anchor="middle" font-size="10" font-weight="bold" fill="#15803D">Integrations</text>
  <rect x="420" y="110" width="108" height="22" rx="4" fill="#FEF3C7"/>
  <text x="474" y="126" text-anchor="middle" font-size="10" font-weight="bold" fill="#92400E">Chains opaque</text>
  <rect x="536" y="110" width="104" height="22" rx="4" fill="#FEF3C7"/>
  <text x="588" y="126" text-anchor="middle" font-size="10" font-weight="bold" fill="#92400E">Version churn</text>

  <!-- LAYER 2 (middle): Google ADK -->
  <rect x="50" y="176" width="638" height="84" rx="10" fill="#EFF6FF" stroke="#3B82F6" stroke-width="2"/>
  <text x="180" y="204" text-anchor="middle" font-size="16" font-weight="bold" fill="#1D4ED8">Google ADK</text>
  <text x="180" y="224" text-anchor="middle" font-size="11" fill="#374151">Agent development kit, structured evals</text>
  <text x="180" y="241" text-anchor="middle" font-size="11" fill="#374151">Built-in tracing, Google Cloud native</text>

  <!-- Tags for ADK -->
  <rect x="420" y="188" width="72" height="22" rx="4" fill="#DCFCE7"/>
  <text x="456" y="204" text-anchor="middle" font-size="10" font-weight="bold" fill="#15803D">Tracing</text>
  <rect x="500" y="188" width="54" height="22" rx="4" fill="#DCFCE7"/>
  <text x="527" y="204" text-anchor="middle" font-size="10" font-weight="bold" fill="#15803D">Eval</text>
  <rect x="420" y="218" width="96" height="22" rx="4" fill="#FEF3C7"/>
  <text x="468" y="234" text-anchor="middle" font-size="10" font-weight="bold" fill="#92400E">Loop hidden</text>
  <rect x="524" y="218" width="140" height="22" rx="4" fill="#FEF3C7"/>
  <text x="594" y="234" text-anchor="middle" font-size="10" font-weight="bold" fill="#92400E">Context managed</text>

  <!-- LAYER 1 (bottom): Raw Python -->
  <rect x="50" y="284" width="638" height="84" rx="10" fill="#F3F4F6" stroke="#6B7280" stroke-width="2"/>
  <text x="180" y="312" text-anchor="middle" font-size="16" font-weight="bold" fill="#374151">Raw Python</text>
  <text x="180" y="332" text-anchor="middle" font-size="11" fill="#374151">Direct API calls, manual loop, explicit state</text>
  <text x="180" y="349" text-anchor="middle" font-size="11" fill="#374151">You write everything, you control everything</text>

  <!-- Tags for Raw Python -->
  <rect x="420" y="296" width="88" height="22" rx="4" fill="#DCFCE7"/>
  <text x="464" y="312" text-anchor="middle" font-size="10" font-weight="bold" fill="#15803D">Full control</text>
  <rect x="516" y="296" width="120" height="22" rx="4" fill="#DCFCE7"/>
  <text x="576" y="312" text-anchor="middle" font-size="10" font-weight="bold" fill="#15803D">Full visibility</text>
  <rect x="420" y="326" width="136" height="22" rx="4" fill="#FEF3C7"/>
  <text x="488" y="342" text-anchor="middle" font-size="10" font-weight="bold" fill="#92400E">Full responsibility</text>

  <!-- Caption -->
  <text x="360" y="384" text-anchor="middle" font-size="11" fill="#374151">Higher abstraction = less code, less insight. Choose based on what you need to debug and own.</text>
  <text x="360" y="398" text-anchor="middle" font-size="11" fill="#9CA3AF">Recommendation: build raw first, then adopt a framework when you know what pain it solves.</text>
</svg>
